<svg width="71" height="71" viewBox="0 0 71 71" fill="none" xmlns="http://www.w3.org/2000/svg">
<g clip-path="url(#clip0_168_17)">
<mask id="mask0_168_17" style="mask-type:luminance" maskUnits="userSpaceOnUse" x="0" y="0" width="71" height="71">
<path d="M0 -9.53674e-07H71V71H0V-9.53674e-07Z" fill="white"/>
</mask>
<g mask="url(#mask0_168_17)">
<path d="M11.2105 11.2105H22.4211C24.4838 11.2105 26.1579 11.0162 26.1579 13.0789V9.34208C26.1579 8.35101 25.7642 7.40053 25.0634 6.69973C24.3626 5.99894 23.4121 5.60524 22.4211 5.60524H7.47368C3.73684 5.60524 0.779132 9.57563 1.86842 14.9473C1.86842 14.9473 5.21476 32.4638 5.45018 33.5531C6.07237 36.4342 9.42058 39.2368 13.0005 39.2368H26.0028C28.0656 39.2368 26.1579 35.6943 26.1579 33.6316V29.8947C26.1579 30.8858 25.7642 31.8363 25.0634 32.5371C24.3626 33.2379 23.4121 33.6316 22.4211 33.6316H14.9474C12.8846 33.6316 11.5226 31.6847 11.2105 29.8947C10.8985 28.1048 8.25282 16.1936 8.25282 16.1936C7.62876 12.6118 9.14779 11.2105 11.2105 11.2105Z" fill="#7E7E7E"/>
<path d="M59.4401 11.2105H48.2296C46.1668 11.2105 42.9737 11.0162 42.9737 13.0789V9.34208C42.9737 7.27934 46.1668 5.60524 48.2296 5.60524H63.1769C66.9138 5.60524 69.8733 9.57563 68.7822 14.9473C68.7822 14.9473 65.7311 32.546 65.4732 33.6316C64.8118 36.4342 61.6579 39.2368 57.9995 39.2368H44.6497C42.5851 39.2368 42.9737 35.6943 42.9737 33.6316V29.8947C42.9737 31.9574 46.1668 33.6316 48.2296 33.6316H55.7032C57.766 33.6316 59.1299 31.6847 59.4401 29.8947C59.7502 28.1048 62.3997 16.1936 62.3997 16.1936C63.02 12.6118 61.5028 11.2105 59.4401 11.2105Z" fill="#7E7E7E"/>
<path d="M40.5615 42.9737C40.5615 29.9733 35.5 42.9737 35.5 42.9737C35.5 42.9737 29.8947 29.9733 29.8947 42.9737C29.8947 55.9742 23.7458 61.658 23.7458 61.658H46.7105C46.7105 61.658 40.5615 55.9742 40.5615 42.9737Z" fill="#7E7E7E"/>
<path d="M56.0526 14.157C56.0526 26.8156 43.4034 48.1473 35.5 48.1473C27.5947 48.1473 14.9474 26.8156 14.9474 14.157C14.9474 4.45058 16.8158 2.35047 20.5526 2.35047C23.1198 2.35047 31.8099 2.30002 35.5 2.30002L48.5789 2.29629C54.0291 2.29629 56.0526 3.57615 56.0526 14.157Z" fill="#C4C4C4"/>
<path d="M52.3158 63.5263C52.3158 65.5891 52.5101 67.2632 50.4474 67.2632H20.5526C18.4899 67.2632 18.6842 65.5891 18.6842 63.5263V61.6579C18.6842 59.5952 20.6311 57.9211 22.5761 57.9211H48.5789C50.5258 57.9211 52.3158 59.5952 52.3158 61.6579V63.5263Z" fill="#323232"/>
<path d="M56.0526 66.5625C56.0526 67.9825 56.1311 69.1316 53.4835 69.1316H17.5164C15.1024 69.1316 14.9474 67.9825 14.9474 66.5625V66.0954C14.9474 64.6754 16.0983 63.5263 17.5164 63.5263H53.4835C54.9035 63.5263 56.0526 64.6754 56.0526 66.0954V66.5625Z" fill="#323232"/>
</g>
</g>
<defs>
<clipPath id="clip0_168_17">
<rect width="71" height="71" fill="white"/>
</clipPath>
</defs>
</svg>
