<svg width="24" height="24" viewBox="0 0 24 24" fill="none" xmlns="http://www.w3.org/2000/svg">
<path d="M12 22.4036C6.29543 22.4036 1.65515 17.7634 1.65515 12.0588C1.65515 6.35427 6.29543 1.71399 12 1.71399C17.7045 1.71399 22.3448 6.35427 22.3448 12.0588C22.3448 17.7634 17.7045 22.4036 12 22.4036ZM12 3.36916C7.20826 3.36916 3.31032 7.26709 3.31032 12.0588C3.31032 16.8505 7.20826 20.7485 12 20.7485C16.7917 20.7485 20.6896 16.8497 20.6896 12.0588C20.6896 7.26792 16.7917 3.36916 12 3.36916Z" fill="white"/>
<path d="M12 17.8518C11.7805 17.8518 11.57 17.7646 11.4148 17.6094C11.2596 17.4542 11.1724 17.2437 11.1724 17.0242V7.09321C11.1724 6.87372 11.2596 6.66322 11.4148 6.50802C11.57 6.35282 11.7805 6.26562 12 6.26562C12.2195 6.26562 12.43 6.35282 12.5852 6.50802C12.7404 6.66322 12.8276 6.87372 12.8276 7.09321V17.0242C12.8276 17.2437 12.7404 17.4542 12.5852 17.6094C12.43 17.7646 12.2195 17.8518 12 17.8518Z" fill="white"/>
<path d="M16.9655 12.8864H7.0345C6.81501 12.8864 6.60451 12.7992 6.4493 12.644C6.2941 12.4888 6.20691 12.2783 6.20691 12.0588C6.20691 11.8393 6.2941 11.6288 6.4493 11.4736C6.60451 11.3184 6.81501 11.2312 7.0345 11.2312H16.9655C17.185 11.2312 17.3955 11.3184 17.5507 11.4736C17.7059 11.6288 17.7931 11.8393 17.7931 12.0588C17.7931 12.2783 17.7059 12.4888 17.5507 12.644C17.3955 12.7992 17.185 12.8864 16.9655 12.8864Z" fill="white"/>
</svg>
