<svg id="SvgjsSvg1001" width="288" height="288" xmlns="http://www.w3.org/2000/svg" version="1.1" xmlns:xlink="http://www.w3.org/1999/xlink" xmlns:svgjs="http://svgjs.com/svgjs"><defs id="SvgjsDefs1002"></defs><g id="SvgjsG1008"><svg xmlns="http://www.w3.org/2000/svg" viewBox="0 0 24 24" width="288" height="288"><g data-name="Layer 2" fill="#ffffff" class="color000 svgShape"><path d="M12,5C7.68,5,4,8.33,1.94,11.45L1.59,12l.36.55C4,15.67,7.68,19,12,19s8-3.33,10.06-6.45l.36-.55-.36-.55C20,8.33,16.32,5,12,5Zm0,12c-3.28,0-6.21-2.49-8-5,1.8-2.51,4.73-5,8-5s6.21,2.49,8,5C18.21,14.51,15.28,17,12,17Z" fill="#ffffff" class="color000 svgShape"></path><path d="M12,8a4,4,0,1,0,4,4A4,4,0,0,0,12,8Zm0,6a2,2,0,1,1,2-2A2,2,0,0,1,12,14Z" fill="#ffffff" class="color000 svgShape"></path></g></svg></g></svg>