<svg width="80" height="80" viewBox="0 0 80 80" fill="none" xmlns="http://www.w3.org/2000/svg">
<g clip-path="url(#clip0_118_27)">
<path d="M24.5 79C24.5 79 5 77 5 50.5C5 30 20.5 18 20.5 18C20.5 18 27 25 32 27.5C37 30.5 39 0 39 0C39 0 75 19.5 75 49C75 79.5 55 78.5 55 78.5C55 78.5 64 66.5 64 52.5C64 37.5 44.5 19 44.5 19C44.5 19 42 41 34 44C26 39.5 21.5 32.5 21.5 32.5C21.5 32.5 3 61.5 24.5 79Z" fill="#818181"/>
<path d="M41 80.5C31 80 22.5 73.5 22.5 64.5C22.5 55.5 26 51.5 26 51.5C26 51.5 28.5 56.5 31.5 59C34.5 61.5 40.5 63 43.5 59.5C46.5 56.5 47.5 48 47.5 48C47.5 48 54.5 53.5 53.5 63C53 73 49 80.5 41 80.5Z" fill="#818181"/>
</g>
<defs>
<clipPath id="clip0_118_27">
<rect width="80" height="80" fill="white"/>
</clipPath>
</defs>
</svg>
