<svg width="25" height="24" viewBox="0 0 25 24" fill="none" xmlns="http://www.w3.org/2000/svg">
<path fill-rule="evenodd" clip-rule="evenodd" d="M9.19 10.52V14.52C9.19 15.445 9.724 16.342 10.74 17.035C11.948 17.859 13.891 18.42 16.09 18.42C18.289 18.42 20.232 17.859 21.44 17.035C22.456 16.342 22.99 15.445 22.99 14.52V10.52C22.99 10.023 22.587 9.62 22.09 9.62C21.593 9.62 21.19 10.023 21.19 10.52V14.52C21.19 14.921 20.866 15.248 20.425 15.548C19.449 16.214 17.867 16.62 16.09 16.62C14.313 16.62 12.731 16.214 11.755 15.548C11.314 15.248 10.99 14.921 10.99 14.52V10.52C10.99 10.023 10.587 9.62 10.09 9.62C9.593 9.62 9.19 10.023 9.19 10.52Z" fill="#8FD439"/>
<path fill-rule="evenodd" clip-rule="evenodd" d="M9.19 14.52V18.52C9.19 19.445 9.724 20.342 10.74 21.035C11.948 21.859 13.891 22.42 16.09 22.42C18.289 22.42 20.232 21.859 21.44 21.035C22.456 20.342 22.99 19.445 22.99 18.52V14.52C22.99 14.023 22.587 13.62 22.09 13.62C21.593 13.62 21.19 14.023 21.19 14.52V18.52C21.19 18.921 20.866 19.248 20.425 19.548C19.449 20.214 17.867 20.62 16.09 20.62C14.313 20.62 12.731 20.214 11.755 19.548C11.314 19.248 10.99 18.921 10.99 18.52V14.52C10.99 14.023 10.587 13.62 10.09 13.62C9.593 13.62 9.19 14.023 9.19 14.52Z" fill="#8FD439"/>
<path fill-rule="evenodd" clip-rule="evenodd" d="M16.09 6.62C13.892 6.62 11.949 7.18099 10.741 8.00499C9.725 8.69799 9.19 9.59499 9.19 10.52C9.19 11.445 9.725 12.342 10.741 13.035C11.949 13.859 13.892 14.42 16.09 14.42C18.288 14.42 20.231 13.859 21.439 13.035C22.455 12.342 22.99 11.445 22.99 10.52C22.99 9.59499 22.455 8.69799 21.439 8.00499C20.231 7.18099 18.288 6.62 16.09 6.62ZM16.09 8.41999C17.866 8.41999 19.448 8.82699 20.425 9.49199C20.866 9.79299 21.19 10.119 21.19 10.52C21.19 10.921 20.866 11.247 20.425 11.548C19.448 12.213 17.866 12.62 16.09 12.62C14.314 12.62 12.732 12.213 11.755 11.548C11.314 11.247 10.99 10.921 10.99 10.52C10.99 10.119 11.314 9.79299 11.755 9.49199C12.732 8.82699 14.314 8.41999 16.09 8.41999Z" fill="#8FD439"/>
<path fill-rule="evenodd" clip-rule="evenodd" d="M1.19 4.99998V8.99998C1.19 9.75598 1.539 10.484 2.217 11.103C3.018 11.835 4.326 12.429 5.917 12.713C6.406 12.8 6.873 12.474 6.961 11.985C7.048 11.495 6.721 11.028 6.232 10.941C5.218 10.76 4.343 10.438 3.726 10.008C3.301 9.71297 2.99 9.39198 2.99 8.99998V4.99998C2.99 4.50298 2.587 4.09998 2.09 4.09998C1.593 4.09998 1.19 4.50298 1.19 4.99998Z" fill="#8FD439"/>
<path fill-rule="evenodd" clip-rule="evenodd" d="M1.19 8.99998V13C1.19 13.845 1.631 14.662 2.48 15.325C3.483 16.109 5.11 16.696 7.019 16.856C7.514 16.897 7.949 16.529 7.99 16.034C8.032 15.539 7.664 15.103 7.169 15.062C5.669 14.937 4.376 14.522 3.587 13.906C3.241 13.636 2.99 13.345 2.99 13V8.99998C2.99 8.50298 2.587 8.09998 2.09 8.09998C1.593 8.09998 1.19 8.50298 1.19 8.99998ZM7.157 7.06098C5.662 6.93398 4.372 6.51898 3.586 5.90398C3.24 5.63398 2.99 5.34398 2.99 4.99998C2.99 4.59898 3.314 4.27298 3.755 3.97198C4.732 3.30698 6.314 2.89997 8.09 2.89997C9.866 2.89997 11.448 3.30698 12.425 3.97198C12.866 4.27298 13.19 4.59898 13.19 4.99998C13.19 5.49698 13.593 5.89997 14.09 5.89997C14.587 5.89997 14.99 5.49698 14.99 4.99998C14.99 4.07498 14.455 3.17797 13.439 2.48497C12.231 1.66097 10.288 1.09998 8.09 1.09998C5.892 1.09998 3.949 1.66097 2.741 2.48497C1.725 3.17797 1.19 4.07498 1.19 4.99998C1.19 5.84398 1.63 6.65997 2.477 7.32197C3.478 8.10497 5.102 8.69298 7.005 8.85398C7.5 8.89598 7.936 8.52898 7.978 8.03398C8.02 7.53898 7.652 7.10298 7.157 7.06098Z" fill="#8FD439"/>
</svg>
