<svg width="20" height="20" viewBox="0 0 20 20" fill="none" xmlns="http://www.w3.org/2000/svg">
<path d="M17.4998 1.66663H2.49984C2.27882 1.66663 2.06686 1.75442 1.91058 1.9107C1.7543 2.06698 1.6665 2.27895 1.6665 2.49996V17.5C1.6665 17.721 1.7543 17.9329 1.91058 18.0892C2.06686 18.2455 2.27882 18.3333 2.49984 18.3333H17.4998C17.7209 18.3333 17.9328 18.2455 18.0891 18.0892C18.2454 17.9329 18.3332 17.721 18.3332 17.5V2.49996C18.3332 2.27895 18.2454 2.06698 18.0891 1.9107C17.9328 1.75442 17.7209 1.66663 17.4998 1.66663ZM9.1665 16.6666H3.33317V10.8333H9.1665V16.6666ZM9.1665 9.16663H3.33317V3.33329H9.1665V9.16663ZM16.6665 16.6666H10.8332V10.8333H16.6665V16.6666ZM16.6665 9.16663H10.8332V3.33329H16.6665V9.16663Z" fill="white"/>
</svg>
