<?xml version="1.0" encoding="UTF-8"?>
<svg id="Camada_2" data-name="Camada 2" xmlns="http://www.w3.org/2000/svg" width="382.261" height="364.264" viewBox="0 0 382.261 364.264">
  <g id="Camada_1-2" data-name="Camada 1">
    <g>
      <g>
        <path d="M190.772,330.995c-92.071-.263-165.165-74.671-165.369-164.929C25.197,74.424,99.224,.016,190.598,0c91.454-.016,165.592,73.806,165.735,165.028,.143,91.735-73.725,165.785-165.56,165.967Zm156.574-165.388c-.153-87.683-71.291-156.683-156.722-156.554-84.879,.128-155.906,68.587-156.2,156.061-.29,86.384,69.865,156.553,155.952,156.804,85.265,.249,156.673-68.492,156.97-156.311Z" fill="#040403"/>
        <path d="M347.346,165.607c-.297,87.819-71.705,156.56-156.97,156.311-86.088-.251-156.242-70.42-155.952-156.804C34.717,77.64,105.745,9.18,190.623,9.053c85.432-.129,156.569,68.871,156.722,156.554Z" fill="#a5d44a"/>
      </g>
      <g>
        <path d="M229.126,286.138c8.86,.345,20.148-1.82,27.746-.413-30.312,2.395-60.886,9.402-91.354,5.612-20.648-2.202-41.568-6.011-60.149-15.733-26.277-15.28-50.859-44.388-50.306-76.019,1.38-16.13,5.66-31.681,10.866-46.935,.755-2.228,.769-2.347-1.071-3.899-14.397-12.128-25.779-29.684-24.823-49.131,1.882-26.736,27.069-49.884,53.997-48.837,10.047-.799,18.982,4.82,28.32,5.803,5.206-1.996,10.623-3.238,16.028-4.51,1.255-.295,1.512-.794,1.264-2.005-1.534-9.721,11.058-11.053,18.09-11.105,1.702-.103,1.91-.238,1.707-1.816-1.422-13.493,17.188-13.445,24.756-6.725,11.32,6.948,23.014,15.129,36.261,17.467,7.188-.501,18.573,5.642,24.138,2.876,6.43-5.076,13.491-9.045,21.168-11.927,50.73-19.854,96.384,44.252,59.687,85.563-1.273,2.55-5.895,4.665-3.778,7.69,5.7,11.044,14.711,20.063,19.153,31.812,11.27,24.028-2.916,49.75-17.511,68.917-23.515,28.842-60.711,42.037-94.188,53.316Zm64.899-204.576c2.884,3.976,6.376,7.622,8.848,12.105,2.049,2.519,2.886,6.525,5.242,8.444,8.285-9.876,4.063-24.615-5.433-32.405-7.248-5.731-17.705-9.852-26.684-4.721-2.488,.862,.101,2.586,1.567,2.589,.092,.953,.818,.67,1.449,.971,.091,.941,.816,.679,1.442,.981,1.797,1.982,4.388,3.634,6.774,5.311,1.676,2.715,4.821,4.421,6.795,6.724Zm-220.463,6.29c-9.082,9.033-12.601,28.999,1.503,35.682,1.496,.797,1.916,.56,2.584-.976,5.803-13.763,13.143-26.814,19.674-40.247,1.957-5.498-11.751-3.88-14.58-1.986-3.559,1.785-6.382,4.385-9.182,7.527Zm219.001-47.384c-15.142-2.158-31.898,3.164-42.953,13.583,3.99,1.956,8.311,3.102,12.318,5.077,3.16,.75,6.218,4.347,9.489,3.043,11.896-8.074,27.762-3.083,36.978,6.488,7.375,6.116,10.798,16.74,8.651,25.999-.044,5.649-6.551,10.273-5.113,15.64,1.931,2.351,4.618,16.166,7.964,12.794,27.493-30.618,10.263-73.417-27.334-82.625ZM64.343,91.709c7.326-11.313,19.667-22.076,34.057-16.73,1.926,.599,1.944,.724,2.862-1.067,2.605-5.006,5.342-10.062,10.56-12.725,.485-.322,.954-.657,.799-1.334-9.844-4.634-22.14-5.061-32.747-2.075-20.417,5.719-36.407,26.95-34.429,48.399,1.439,14.932,10.731,27.656,21.465,37.553,2.83,2.607,5.227-10.772,6.792-12.776,.585-1.594,.454-1.908-1.058-2.687-14.116-6.882-15.151-24.08-8.303-36.56ZM217.646,52.534c-11.357-2.877-22.747-9.383-32.894-15.935-3.484-2.2-8.144-5.468-11.587-5.9-4.291-.464-10.766,1.13-8.424,7.094,1.701,3.962,8.863,3.431,9.816,7.277-2.669,.676-5.917-1.751-7.681-.824-7.5,.457-17.555-2.991-22.552,3.856-1.547,1.887,4.353,4.886,2.158,7.442-.755,.326-1.551,.368-2.358,.341-1.747-1.164-2.531,1.48-4.359,.935-2.523-.599-4.863,2.196-7.747,1.894-1.542-.903-2.02,.877-3.384,.974-.999-1.225-1.089,1.228-2.778,.994-11.193,2.497-18.022,9.091-22.226,19.579-12.753,23.774-24.113,48.009-32.622,73.422-6.039,19.099-12.034,37.015-11.267,56.207,7.875,26.952,27.354,52.452,53.783,64.176,42.529,17.49,90.378,16.853,133.17,.664,49.389-14.084,122.094-70.174,80.215-125.177-12.721-16.318-17.985-36.567-28.623-54.066-17.054-27.246-50.004-39.361-80.642-42.954Z" fill="#2b1e36"/>
        <path d="M144.126,55.885c1.354,.085,5.643-.361,3.043-2.12-10.603-12.697,15.23-9.447,21.689-9.335,1.02,.447,10.293,1.484,5.916-.466-3.193-1.938-7.862-2.857-10.033-6.17-2.526-6.548,5.301-7.747,9.437-6.858,14.194,6.542,26.579,17.133,41.891,21.34,13.528,1.439,28.673,4.579,41.666,10.955,26.426,17.961,40.947,52.062,46.115,83.77,15.286,35.071-4.949,74.775-31.059,99.1-23.865,17.69-54.872,20.506-83.647,21.582-23.37,.271-46.775-1.4-69.907-4.714-14.864-2.533-32.106-1.246-40.33-16.234-12.25-15.678-22.332-34.853-18.284-54.51,.745-1.257,.231-4.118,2.197-2.013,21.035,22.033,43.863,10.353,61.557-8.697,11.085-11.153,27.652-21.461,29.399-38.376-.085-10.623-9.024-18.142-16.921-23.918-17.855-13.161-40.929-2.686-54.936,11.252-.838,.744-2.424,2.914-2.837,.825,9.253-20.846,18.894-41.558,30.232-61.399,8.623-9.882,23.482-10.29,34.813-14.012Zm81.948,61.825c-21.504-.946-37.345,21.971-36.547,41.661,.453,14.512,14.36,17.3,25.053,22.762,10.224,5.61,19.527,12.513,28.033,20.441,3.529,3.289,7.532,4.879,12.161,5.053,37.658,.214,38.376-32.804,24.295-59.475-9.086-20.264-32.129-29.217-52.995-30.443Zm-62.99,59.128c-16.227,1.671-18.735,7.95-4.563,17.58,6.605,7.289-6.691,18.414-13.688,12.043-3.216-1.22-5.635-6.839-8.975-6.086-1.356,.802-.973,2.931-.011,4.076,5.203,8.743,18.013,12.037,25.324,3.948,2.033-2.052,2.08-1.456,3.452-.184,14.823,14.509,32.963-7.541,24.672-7.706-3.854,1.437-5.148,6.848-9.859,7.575-6.021,2.233-12.623-3.193-15.102-8.341-.808-2.498,1.895-2.432,3.511-3.145,5.828-2.409,9.128-7.165,11.677-12.616,.37-5.138-11.528-6.977-16.438-7.143Z" fill="#f9f2e8"/>
        <path d="M89.816,258.237c52.737,8.767,109.062,16.666,160.926-.308,30.705-10.217,49.443-41.451,57.2-71.393,2.495-11.53,2.357-24.117-3.006-34.869-3.125-15.282-6.289-30.505-12.89-44.807-3.997-9.208-8.983-17.823-15.177-25.699-1.193-3.906-25.019-21.732-13.172-15.496,23.025,9.677,37.686,30.663,46.268,53.369,8.035,24.011,33.104,42.315,29.385,69.54-13.453,63.814-85.001,88.577-142.187,98.331-36.629,1.412-79.199-3.002-107.347-28.666Z" fill="#9e9597"/>
        <path d="M79.081,131.296c.421,2.101,1.995-.089,2.837-.825,19.426-19.852,47.923-24.938,66.384-.918,16.994,20.02-10.638,39.114-23.924,51.963-9.044,7.885-17.466,17.819-29.807,20.138-12.675,3.063-24.222-4.144-33.158-12.306,3.698-19.867,10.715-39.513,17.669-58.052Zm35.246,13.572c-9.322-2.913-29.783,23.148-19.036,18.172,3.56-3.991,6.889-8.273,12.481-9.328,11.313-2.575,16.155,.637,23.426,7.978,9.155-3.883-12.576-17.345-16.872-16.822Z" fill="#554767"/>
        <path d="M306.149,46.228c26.932,12.165,35.93,48.299,17.625,71.663-7.555,13.552-7.617-.956-11.84-7.591-1.442-5.36,5.072-9.996,5.111-15.641,2.149-9.26-1.276-19.882-8.649-26-1.735-1.526,.71-4.493,.15-6.673,.435-5.441-1.173-10.567-2.397-15.759Z" fill="#3d2d48"/>
        <path d="M55.583,75.705c10.389-18.922,36.737-23.714,55.896-16.586,4.328,1.339-6.362,5.394-6.509,8.317-2.049,2.045-3.145,9.237-6.57,7.543-14.395-5.348-26.727,5.419-34.056,16.731-7.005-1.992-10.405-9.064-8.761-16.006Z" fill="#544667"/>
        <path d="M306.149,46.228c6.007,33.614,2.156,16.802-15.77,12.294-17.998-2.825-14.871,8.634-28.45,.607-4.008-1.976-8.327-3.121-12.318-5.076,7.271-7.425,18.023-11.305,28.089-13.475,9.831-1.691,20.209-.147,28.45,5.65Z" fill="#544667"/>
        <path d="M55.583,75.705c-1.637,6.941,1.747,14.017,8.761,16.004-4.709,9.795-6.944,22.124,1.173,30.902,9.502,9.21,10.375,3.407,4.682,17.313-1.564,10.7-9.405-3.564-12.973-6.571-13.61-15.694-17.25-42.485-1.642-57.648Z" fill="#3d2d48"/>
        <path d="M80.275,81.998c4.755-1.686,9.914-3.767,15.039-1.91,3.856,1.051-1.929,6.615-2.376,9.04-4.019,5.276-4.528,17.488-13.056,15.714-9.376-.376-11.033-11.295-6.318-16.99,1.267-2.322,4.22-2.972,5.282-4.866,.631-.33,1.396,.019,1.429-.988Z" fill="#fb6470"/>
        <path d="M71.861,90.112c-2.456,6.467,.061,14.38,8.02,14.73,2.61,.068,5.437,.626,6.494-2.405,.609-3.527,13.635-22.405,8.94-22.349-3.412-2.919-19.772,3.98-12.572,.238,4.334-2.065,8.809-2.343,13.366-.835,4.419,1.37-2.272,7.893-2.818,10.763-5.124,10.825-11.137,21.2-15.642,32.305-.668,1.536-1.088,1.773-2.584,.976-12.925-6.055-11.274-24.159-3.204-33.423Z" fill="#8f3a4b"/>
        <path d="M287.231,74.839c-1.784-1.885-3.257-3.464-5.686-4.491-.088-.897-.808-.717-1.431-.994-.113-.872-.826-.707-1.442-.979-.124-.865-.827-.716-1.46-.956-2.562-2.901,2.434-2.34,3.785-3.895,6.69-.494,13.192,.972,18.823,4.515,9.035,5.96,2.851,19.131-4.192,15.331-1.127-.752-1.325-2.537-2.566-2.766-2.225-1.748-2.962-4.906-5.831-5.763Z" fill="#fb6470"/>
        <path d="M295.628,83.367c7.462,3.675,12.059-9.039,5.583-14.287,10.827,6.167,15.366,23.206,6.905,33.032-2.355-1.916-3.196-5.928-5.244-8.443-1.712-3.903-5.494-6.752-7.245-10.301Z" fill="#8f3a4b"/>
        <path d="M298.023,66.884c-5.153-2.437-10.353-3.675-16.173-3.472,4.746-2.212,12.288,.038,16.173,3.472Z" fill="#8f3a4b"/>
        <path d="M280.997,63.522c-1.351,1.554-6.346,.996-3.785,3.895-5.81-.814,1.397-4.525,3.785-3.895Z" fill="#8f3a4b"/>
        <path d="M287.231,74.839c1.72,.495,2.747,1.728,3.485,3.269-1.684-.533-2.694-1.785-3.485-3.269Z" fill="#8f3a4b"/>
        <path d="M282.395,70.97c1.538,.45,2.857,1.178,3.507,2.757-1.547-.439-2.719-1.354-3.507-2.757Z" fill="#8f3a4b"/>
        <path d="M60.098,197.542c.344,.859,.425,1.691-.247,2.447-.547-.879-.704-1.719,.247-2.447Z" fill="#554767"/>
        <path d="M139.767,56.82c-.731,.57-1.522,.91-2.47,.629,.676-.787,1.438-1.239,2.47-.629Z" fill="#554767"/>
        <path d="M132.02,58.715c-.72,.568-1.493,.967-2.454,.767,.618-.895,1.388-1.303,2.454-.767Z" fill="#554767"/>
        <path d="M144.126,55.885c-.733,.579-1.535,.876-2.476,.604,.683-.786,1.441-1.261,2.476-.604Z" fill="#554767"/>
        <path d="M147.168,53.765c1.45,.29,.62,2.546-.685,1.779,.228-.593,.456-1.186,.685-1.779Z" fill="#554767"/>
        <path d="M150.894,44.264c-.718,.602-1.526,.886-2.467,.698,.641-.875,1.402-1.326,2.467-.698Z" fill="#554767"/>
        <path d="M168.859,44.429c-.702,.393-1.363,.33-1.982-.182,.726-.654,1.398-.709,1.982,.182Z" fill="#554767"/>
        <path d="M73.563,87.853c-.076,.967-.379,1.754-1.498,1.896,.077-.966,.63-1.556,1.498-1.896Z" fill="#8f3a4b"/>
        <path d="M174.551,44.009c.543-.107,1.47,.063,1.309,.778-.463,1.131-1.661,.194-1.309-.778Z" fill="#554767"/>
        <path d="M78.845,82.986c-.155,.888-.589,1.419-1.581,1.244,.262-.752,.725-1.248,1.581-1.244Z" fill="#8f3a4b"/>
        <path d="M217.646,52.534c-.652,.684-1.161,.491-1.578-.259,.592-.32,1.144-.392,1.578,.259Z" fill="#9e9597"/>
        <path d="M61.121,189.803c.223,.564,.277,1.092-.321,1.477-.58-.642-.466-1.133,.321-1.477Z" fill="#554767"/>
        <path d="M60.621,192.224c.356,.55,.272,1.048-.176,1.504-.643-.584-.615-1.089,.176-1.504Z" fill="#554767"/>
        <path d="M128.636,59.688c-.26,.366-.58,.516-1.006,.274,.195-.608,.487-.857,1.006-.274Z" fill="#554767"/>
        <path d="M258.961,63.786c-.675,.401-1.078,.203-1.226-.556,.588-.21,.976,.022,1.226,.556Z" fill="#9e9597"/>
        <path d="M59.743,209.891c.486,.332,.67,.754,.393,1.314-.673-.276-.741-.733-.393-1.314Z" fill="#554767"/>
        <path d="M277.565,67.576c.632-.098,.961,.223,1.106,.798-.648,.122-.994-.176-1.106-.798Z" fill="#8f3a4b"/>
        <path d="M300.905,68.861c-.628,.076-.986-.203-1.085-.824,.614-.057,.98,.211,1.085,.824Z" fill="#8f3a4b"/>
        <path d="M279.014,68.546c.629-.088,.962,.226,1.099,.807-.645,.111-.986-.192-1.099-.807Z" fill="#8f3a4b"/>
        <path d="M280.456,69.527c.642-.097,.968,.225,1.088,.819-.634,.087-.98-.209-1.088-.819Z" fill="#8f3a4b"/>
        <path d="M144.325,48.103c.207,.363,.207,.725-.01,1.084-.77-.369-.76-.73,.01-1.084Z" fill="#554767"/>
        <path d="M80.275,81.998c-.082,.636-.391,.964-1.071,.786,.152-.542,.49-.83,1.071-.786Z" fill="#8f3a4b"/>
        <path d="M293.061,80.602c.602,.039,1.01,.271,.964,.96-.572-.069-.939-.343-.964-.96Z" fill="#8f3a4b"/>
        <path d="M293.614,41.314c-.648,.088-.959-.242-1.05-.845,.624-.059,.97,.227,1.05,.845Z" fill="#3d2d48"/>
        <path d="M174.178,30.935c-.417,.265-.746,.146-1.013-.235,.5-.62,.802-.388,1.013,.235Z" fill="#554767"/>
        <path d="M226.074,117.71c20.868,1.23,43.907,10.176,52.996,30.443,14.062,26.648,13.38,59.701-24.298,59.474-13.679-1.173-25.715-19.843-40.194-25.491-10.678-5.467-24.615-8.253-25.049-22.766-.81-19.698,15.049-42.594,36.544-41.661Zm4.049,31.017c-7.644-2.772-30.98,23.055-16.637,17.53,3.04-2.914,4.712-7.464,9.094-8.689,16.142-6.916,22.864,13.981,27.346,6.649,.872-6.503-13.382-15.818-19.803-15.49Z" fill="#544667"/>
        <path d="M163.084,176.838c4.917,.141,16.8,2.031,16.439,7.142-2.55,5.452-5.85,10.208-11.678,12.617-1.617,.713-4.318,.646-3.51,3.144,2.483,5.151,9.074,10.572,15.102,8.343,4.709-.732,6.003-6.137,9.857-7.576,8.307,.158-9.859,22.216-24.67,7.705-1.372-1.271-1.419-1.867-3.452,.185-7.665,8.516-21.398,4.374-26.02-5.215-.435-7.992,7.027,2.187,9.681,3.277,6.999,6.371,20.293-4.754,13.689-12.043-14.159-9.607-11.665-15.926,4.563-17.58Z" fill="#2b1e36"/>
        <path d="M114.327,144.868c4.315-.528,26.006,12.938,16.874,16.82-7.289-7.351-12.11-10.547-23.429-7.976-5.59,1.054-8.922,5.337-12.48,9.327-10.761,4.981,9.74-21.098,19.035-18.171Z" fill="#251932"/>
        <path d="M230.122,148.727c6.449-.323,20.64,8.969,19.804,15.488-4.343,7.398-11.187-13.54-27.348-6.645-4.382,1.224-6.053,5.773-9.094,8.687-14.352,5.527,9.014-20.314,16.637-17.529Z" fill="#251932"/>
      </g>
      <g>
        <path d="M132.29,361.18c-17.089,0-34.18-.003-51.27-.019l-1.706,.003c-3.202,0-6.624-.112-10.232-1.41-4.971-1.353-8.386-5.716-8.194-10.582,.181-4.585,3.5-8.316,8.194-9.351,8.336-3.086,16.805-3.92,25.002-4.727l.148-.015c21.439-2.11,43.101-2.956,65.254-3.703l12.158-.415c30.456-1.045,61.949-2.126,93.005-2.126,6.109,0,12.131,.042,17.896,.125,3.604,.052,7.188,.258,10.655,.458,3.222,.185,6.265,.36,9.335,.423,6.986,.144,12.056,4.482,13.56,11.607,.299,1.414,.152,2.886-.419,4.214-4.493,10.438-20.425,14.505-56.821,14.505h-.006c-7.068,0-13.998-.137-20.7-.27-5.635-.111-10.957-.217-15.513-.217-5.284,0-8.984,.147-11.312,.449-.261,.034-.524,.053-.787,.057-4.258,.069-8.79,.101-14.265,.101-3.894,0-7.788-.016-11.683-.032-2.701-.011-5.401-.022-8.103-.028-1.034,.604-2.238,.95-3.522,.95l-40.675,.002Z"/>
        <path d="M268.451,332.247c-6.734,0-12.948-2.839-18.112-8.155-3.553,3.521-8.05,5.594-14.558,5.594-1.693,0-3.576-.136-5.734-.416-.821,.072-1.791,.205-2.806,.343-1.996,.273-4.259,.583-6.521,.583-8.755,0-14.128-5.122-14.373-13.702-.003-.095-.004-.189-.002-.285,.033-2.806,.021-5.694,.008-8.486-.049-10.658-.1-21.672,2.315-32.739,.745-7.79,7.692-14.721,14.938-14.721,7.052,0,10.556,5.867,11.413,10.891l.026,.166c.591,4.042,.283,8.06-.014,11.947-.124,1.617-.244,3.196-.289,4.674,.283-.022,.572-.034,.868-.034,.136,0,.271,.002,.405,.007,4.889,.187,9.041,1.631,12.435,4.316,5.216-7.381,13.688-12.35,22.788-12.35,5.979,0,11.466,2.104,15.984,6.109,.757-1.802,1.504-4.638,1.961-6.375,.514-1.956,1.004-3.816,1.622-5.467,1.435-6.214,6.451-10.333,12.706-10.333,4.247,0,8.308,1.967,10.86,5.261,2.299,2.967,3.175,6.652,2.519,10.494,.036,1.99-.442,3.904-.941,5.667,.738,.272,1.388,.563,1.93,.833,4.099,2.046,6.312,6.393,5.511,10.818-.24,1.328-.859,2.558-1.782,3.542-.427,.455-.865,.858-1.309,1.217,1.331,.748,2.537,1.754,3.528,2.973,2.152,2.646,3.045,6,2.476,9.254-1.351,10.567-9.106,17.925-18.94,17.925h0c-6.29,0-12.256-3.19-16.368-8.751-.354-.48-.689-.967-1.01-1.461-1.324,2.416-3.544,4.53-6.457,6-4.985,3.092-10.056,4.66-15.078,4.66Z"/>
        <path d="M19.105,347.82c-4.501,0-8.51-1.859-11.592-5.375-4.12-4.699-6.496-12.171-7.265-22.841-.561-7.794-.077-15.725,.507-20.149,.03-.233,.073-.465,.127-.694,.199-.841,.371-1.708,.546-2.578,1.086-5.417,2.728-13.603,11.156-17.49,5.503-2.538,12.062-5.132,18.979-5.132,6.794,0,12.958,2.498,18.32,7.425,.033,.03,.066,.061,.099,.092,8.923,8.519,11.599,21.735,6.816,33.668-4.729,11.804-15.45,19.157-28.004,19.225,.119,4.002-.194,10.703-6.837,13.349-.762,.303-1.571,.471-2.392,.494-.156,.004-.308,.007-.462,.007Z"/>
        <path d="M165.132,338.775c-3.93,0-7.409-1.66-9.81-4.57-2.212,1.063-5.159,2.238-8.621,2.238h-.002c-4.787,0-9.152-2.165-12.98-6.435-6.736-6.557-8.664-16.845-4.901-26.315,3.665-9.226,11.831-15.271,20.941-15.58,.277-1.096,.5-2.865,.66-4.14,.603-4.79,1.417-11.261,6.389-15.568,2.594-3.086,6.392-4.835,10.582-4.835s8.357,1.815,11.122,4.856c2.591,2.85,3.816,6.536,3.451,10.378-.032,.34-.09,.677-.171,1.008-3.861,15.702-5.517,30.717-5.061,45.906,.003,.109-.002,.57-.002,.57-.103,6.73-2.881,10.796-8.26,12.085-1.113,.267-2.236,.402-3.338,.402Z"/>
        <path d="M100.054,339.929c-5.154,0-9.468-2.956-11.834-8.109-1.503-3.274-2.266-7.448-2.266-12.406,0-11.342,4.157-29.334,15.314-29.334,2.417,0,4.584,.823,6.49,2.459,3.735-2.685,7.802-4.107,11.924-4.107,5.158,0,9.924,2.229,13.419,6.276,4.502,5.213,6.382,12.974,5.158,21.292-.036,.243-.085,.484-.146,.722-.093,.674,.048,2.567,.142,3.827,.35,4.682,.745,9.988-2.771,13.777-1.821,1.962-4.367,3.043-7.169,3.043-1.744,0-3.572-.403-5.589-1.23-.246-.101-.486-.216-.72-.345-4.953-2.729-7.251-6.773-8.372-10.833-.07,.338-.119,.635-.143,.879-.013,.269-.035,.461-.079,.727l-.061,.38c-.539,3.357-1.963,12.239-11.932,12.914-.459,.045-.917,.069-1.367,.069Z"/>
        <path d="M85.212,339.703c-4.022,0-6.878-2.289-7.817-3.041-.704-.565-1.291-1.169-1.784-1.78-3.533,1.676-6.989,2.521-10.331,2.521-8.757,0-15.777-6.085-17.47-15.142-1.841-9.85,2.849-23.026,17.438-28.895,2.38-1.246,4.881-1.876,7.442-1.876,3.871,0,7.117,1.433,9.725,2.585,1.813,.801,3.388,1.496,4.665,1.543,.163-.007,.324-.011,.484-.011,3.048,0,5.836,1.266,7.852,3.564,2.289,2.61,3.314,6.289,2.813,10.093-.063,.475-.175,.943-.333,1.396-.712,2.038-.859,5.208-1.002,8.272-.288,6.204-.615,13.236-5.439,18.385-.839,.895-1.897,1.554-3.07,1.911-1.039,.316-2.106,.477-3.172,.477h0Z"/>
        <path d="M204.086,333.643c-2.998,0-5.89-1.156-8.014-3.188-.495-.423-.928-.864-1.31-1.312-2.905,1.265-6.052,1.929-9.288,1.929h-.003c-6.877,0-13.102-3.067-16.652-8.202-3.491-5.05-4.049-11.448-1.569-18.016,.035-.094,.072-.187,.112-.279,3.889-9.1,13.374-18.893,25.008-18.893,2.026,0,4.045,.302,6,.899,1.875,.585,3.412,1.413,4.646,2.078,1.33,.716,2.176,1.155,2.778,1.155,.054,0,.108-.002,.165-.007,.207-.019,.414-.028,.621-.028,.864,0,1.724,.16,2.532,.474,11.096,4.306,8.16,16.824,6.583,23.548-.56,2.388-1.497,6.384-1.203,7.628,.096,.408,.155,.825,.177,1.244,.152,2.938-.828,5.677-2.763,7.713-1.965,2.07-4.815,3.257-7.821,3.257Z"/>
        <path d="M357.573,326.709c-11.988-.214-20.991-10.476-20.943-23.87,.053-14.209,11.257-26.213,24.465-26.213h.236c12.449,.134,21.055,10.351,20.929,24.847-.116,13.209-11.714,25.239-24.332,25.239,0,0-.354-.003-.354-.003Z"/>
        <path d="M337.459,327.606c-.151,0-.303-.005-.453-.015-12.174-.79-12.51-12.726-12.652-17.822-.043-1.521-.084-2.958-.25-4.064-.098-.65-.104-1.311-.018-1.963,.051-.379,.092-1.153,.132-1.902,.232-4.391,.941-17.754,12.847-17.754,.238,0,.483,.006,.731,.02,.562,.03,1.118,.128,1.657,.292,12.732,3.87,10.367,17.836,9.097,25.339-.409,2.414-.832,4.91-.762,6.284,.021,.407,.006,.815-.045,1.22-1.104,8.862-7.259,10.191-9.854,10.352-.144,.009-.287,.013-.431,.013Z"/>
        <path d="M336.418,294.733c-1.993,0-4.967-.582-7.813-3.354-2.059-2.007-3.209-4.6-3.241-7.304-.034-2.829,1.104-5.573,3.298-7.965,2.303-2.933,5.652-4.604,9.271-4.604,4.78,0,9.068,2.885,10.672,7.18,1.566,4.196,.23,8.834-3.485,12.151-2.717,2.586-5.644,3.896-8.701,3.896h0Z"/>
        <path d="M325.475,327.919c-6.202,0-11.946-5.745-12.051-12.05-.085-5.09,3.53-10.35,11.797-10.626,.078-.002,.155-.004,.233-.004,.229,0,.459,.011,.688,.034,6.45,.637,10.623,5.465,10.382,12.014-.024,.676-.147,1.345-.364,1.986-1.832,5.414-5.826,8.646-10.683,8.646h-.003Z"/>
        <path d="M335.578,364.262c-4.419-.052-8.532-1.808-11.582-4.944-3.116-3.205-4.843-7.528-4.893-12.225-.32-3.229,.664-6.347,2.809-8.842,3.054-3.553,8.458-5.675,14.458-5.675,6.062,0,11.297,2.126,14.359,5.834,2.348,2.842,3.308,6.463,2.732,10.253-.531,8.932-8.017,15.6-17.641,15.6,0,0-.243-.001-.243-.001Z"/>
      </g>
      <g>
        <path d="M172.966,354.178c-30.646,0-61.292,.012-91.937-.017-3.316-.003-6.662,.132-9.868-1.103-4.13-.911-4.545-5.864-.182-6.47,7.698-2.956,15.851-3.745,23.941-4.541,21.545-2.121,43.18-2.944,64.805-3.673,40.895-1.38,81.79-3.003,122.723-2.413,6.652,.096,13.295,.744,19.947,.88,4.18,.086,6.155,2.74,6.854,6.054-6.909,16.052-79.8,7.826-98.823,10.293-12.484,.202-24.973,.036-37.46,.036v.953Z" fill="#a5cf4e"/>
        <path d="M250.154,307.558c.89-16.804,21.358-27.788,33.508-15.297,10.291,6.77,11.281-9.824,13.879-16.11,1.59-8.926,14.547-5.769,12.299,2.957,.646,3.559-4.638,11.372,.662,12.053,1.442,.067,2.955,.525,4.254,1.172,1.202,.599,2.021,1.803,1.748,3.307-4.392,4.682-11.475-2.26-10.229,10.915,.019,.164,0,.333-.002,.499-.04,2.235-1.13,5.472,.984,6.305,1.96,.773,3.028-2.481,4.173-4.167,2.445-4.513,8.878-.83,7.955,3.608-1.491,12.702-15.234,16.263-22.76,6.085-3.064-4.168-4.403-8.961-4.285-14.071,.084-3.668-1.268-5.582-5.298-5.381-.436,5.689-3.444,9.82-9.152,13.063,7.869-.521,8.554,5.977,2.231,8.967-11.553,7.335-22.576,3.887-29.88-9.296-5.129,9.527-9.203,11.58-19.963,10.071-6.447,.329-16.644,4.084-16.932-5.944,.163-13.448-.726-26.988,2.267-40.283,.345-7.249,10.831-13.509,12.509-3.678,1.059,7.243-1.563,15.95,.292,22.751,1.527,2.421,4.776-.271,7.34-.174,7.788,.297,11.928,4.882,14.403,12.648Zm-11.84-1.495c.152-6.608-13.522,3.369-8.851,6.385,2.921,1.017,8.716-3.144,8.851-6.385Zm37.375-7.498c-.181-2-1.511-2.579-3.139-2.368-13.204,2.292,.03,13.751,3.139,2.368Zm1.692,14.482c-4.764,1.395-9.373,.685-14.218-1.255,2.618,5.474,7.811,5.889,14.218,1.255Z" fill="#f6efe6"/>
        <path d="M26.899,326.916c-9.826-2.671-1.492,11.495-7.53,13.9-13.952,.396-12.978-30.563-11.674-40.445,1.353-5.724,1.632-12.467,7.821-15.322,9.88-4.556,20.064-7.7,29.633,1.09,14.885,14.21,4.649,42.247-18.249,40.776Zm-3.367-13.952c-.111,3.181,.248,3.607,2.772,2.452,8.069-2.125,21.388-22.593,7.041-23.012-10.492,.59-8.16,13.049-9.813,20.56Z" fill="#f6efe6"/>
        <path d="M174.995,278.14c-3.876,15.763-5.746,31.571-5.259,47.787-.04,2.376,.028,4.937-2.897,5.638-3.112,.746-5.783-.533-7.066-3.357-2.818-8.102-10.795,8.603-21.001-3.056-10.65-10.049-2.515-30.515,12.219-30.045,9.426-.534,3.541-16.293,10.844-21.77,3.943-5.538,13.825-2.171,13.161,4.801Zm-20.388,30.457c.211-10.193-13.659,3.978-8.818,9.603,4.111,7.306,8.717-5.857,8.818-9.603Z" fill="#f6efe6"/>
        <path d="M106.595,303.497c11.839-15.763,27.393-6.538,24.74,11.484-1.342,4.933,3.674,18.632-5.949,14.682-7.537-4.153-5.007-13.387-6.681-20.357-4.519-10.339-12.004,11.835-12.201,16.139-.576,3.549-.98,7.174-5.671,7.439-16.275,1.87-3.788-54.391,5.762-29.386Z" fill="#f5eee5"/>
        <path d="M78.159,325.14c-24.354,18.283-33.724-16.211-9.951-25.417,7.082-3.971,12.034,2.913,19.036,2.896,2.822-.231,4.463,2.572,4.047,5.73-2.596,7.424,.194,18.698-4.943,24.181-1.769,.539-3.229-.253-4.574-1.33-1.914-1.533-1.982-4.174-3.615-6.06Zm1.281-16.271c-.048-.452-1.094-.425-2.361-.17-3.193,.442-14.971,12.195-8.75,13.865,3.173-.411,11.483-9.569,11.111-13.695Z" fill="#f5eee5"/>
        <path d="M197.153,319.174c-10.311,10.302-29.108,3.401-23.353-11.849,3.598-8.417,12.85-17.003,22.526-14.049,3.414,1.065,5.972,3.885,10.256,3.503,8.728,3.387-.674,18.741,1.098,26.257,.201,3.883-4.604,4.645-6.905,2.224-1.932-1.513-2.052-4.13-3.623-6.086Zm1.295-14.786c.05-1.619-.679-2.074-2.601-1.622-3.111,.429-15.033,12.527-8.398,13.753,3.17-.589,10.903-9.047,10.999-12.13Z" fill="#f5eee5"/>
        <path d="M375.26,301.412c-.083,9.473-8.703,18.455-17.562,18.298-8.114-.144-14.102-7.314-14.067-16.846,.038-10.524,8.114-19.338,17.626-19.237,8.522,.091,14.095,7.169,14.003,17.785Zm-19.557,2.88c1.744,17.354,18.992-5.99,8.396-10.448-6.143-1.796-7.952,5.708-8.396,10.448Z" fill="#a5cf4e"/>
        <path d="M331.026,304.662c.5-3.766-.389-13.935,6.392-13.568,9.595,2.917,3.002,17.832,3.38,25.28-.269,2.154-.843,4.077-3.338,4.231-7.658-.497-5.481-9.618-6.434-15.943Z" fill="#a5cf4e"/>
        <path d="M337.6,287.099c-2.879-.045-5.309-.97-5.353-4.39-.035-2.739,2.117-3.653,4.419-3.68,6.375-1.04,8.237,8.588,.934,8.07Z" fill="#a5cf4e"/>
        <path d="M329.53,317.03c-3.67,10.848-15.896-4.396-4.075-4.79,2.601,.256,4.184,1.842,4.075,4.79Z" fill="#a0cd48"/>
        <path d="M335.661,357.263c-5.532-.066-9.652-4.629-9.557-10.585-1.417-9.31,22.553-10.038,20.384,1.242-.144,5.403-4.793,9.414-10.827,9.343Z" fill="#a5cf4e"/>
      </g>
    </g>
  </g>
</svg>