<svg width="27" height="27" viewBox="0 0 27 27" fill="none" xmlns="http://www.w3.org/2000/svg">
<path d="M13.5 25.1379C19.9279 25.1379 25.1379 19.9279 25.1379 13.5C25.1379 7.07214 19.9279 1.86207 13.5 1.86207C7.07215 1.86207 1.86208 7.07214 1.86208 13.5C1.86208 19.9279 7.07215 25.1379 13.5 25.1379ZM10.2414 9.45838C10.2414 9.31801 10.2787 9.18016 10.3492 9.05883C10.4198 8.9375 10.5213 8.83703 10.6433 8.76761C10.7653 8.69819 10.9035 8.66231 11.0438 8.66361C11.1842 8.6649 11.3217 8.70334 11.4424 8.775L18.2325 12.8166C18.3507 12.8871 18.4486 12.9871 18.5166 13.1068C18.5846 13.2266 18.6204 13.3619 18.6204 13.4995C18.6204 13.6372 18.5846 13.7725 18.5166 13.8922C18.4486 14.0119 18.3507 14.1119 18.2325 14.1824L11.4424 18.2241C11.3218 18.296 11.1844 18.3347 11.044 18.3362C10.9036 18.3376 10.7653 18.3019 10.6432 18.2325C10.5211 18.1632 10.4196 18.0627 10.3491 17.9413C10.2785 17.8199 10.2413 17.682 10.2414 17.5416L10.2414 9.45838Z" fill="white"/>
</svg>
