<svg width="18" height="16" viewBox="0 0 18 16" fill="none" xmlns="http://www.w3.org/2000/svg">
<path d="M16.5 9C17.0523 9 17.5 8.55228 17.5 8C17.5 7.44772 17.0523 7 16.5 7L16.5 9ZM0.292892 7.29289C-0.0976315 7.68342 -0.0976314 8.31658 0.292893 8.70711L6.65686 15.0711C7.04738 15.4616 7.68054 15.4616 8.07107 15.0711C8.46159 14.6805 8.46159 14.0474 8.07107 13.6569L2.41421 8L8.07107 2.34315C8.46159 1.95262 8.46159 1.31946 8.07107 0.928933C7.68054 0.538409 7.04738 0.538409 6.65685 0.928933L0.292892 7.29289ZM16.5 7L1 7L1 9L16.5 9L16.5 7Z" fill="white" fill-opacity="0.5"/>
</svg>
