<svg width="18" height="18" viewBox="0 0 18 18" fill="none" xmlns="http://www.w3.org/2000/svg">
<g clip-path="url(#clip0_219_12)">
<path fill-rule="evenodd" clip-rule="evenodd" d="M8.16651 3.78247V5.66663H7.33317C4.69067 5.66663 2.45901 7.42329 1.74151 9.83329H0.666504V13.1666H1.74151C2.45901 15.5766 4.69067 17.3333 7.33317 17.3333C8.42317 17.3333 9.57651 17.3333 10.6665 17.3333C13.309 17.3333 15.5407 15.5766 16.2582 13.1666H17.3332V9.83329H16.2582C15.5407 7.42329 13.309 5.66663 10.6665 5.66663H9.83317V3.78746C10.3357 3.49912 10.674 2.95746 10.674 2.33746C10.674 1.41496 9.92567 0.666626 9.004 0.666626C8.0815 0.666626 7.33317 1.41496 7.33317 2.33746C7.33317 2.95413 7.66817 3.4933 8.16651 3.78247ZM3.16651 11.5C3.16651 9.19913 5.03234 7.33329 7.33317 7.33329C8.42317 7.33329 9.57651 7.33329 10.6665 7.33329C12.9674 7.33329 14.8332 9.19913 14.8332 11.5C14.8332 11.5033 14.8332 11.5075 14.8332 11.5108C14.8332 13.8008 12.9674 15.6666 10.6665 15.6666C9.57651 15.6666 8.42317 15.6666 7.33317 15.6666C5.03234 15.6666 3.16651 13.8008 3.16651 11.5ZM10.6665 10.6666V12.3333H12.3332V10.6666H10.6665ZM5.66651 10.6666V12.3333H7.33317V10.6666H5.66651Z" fill="#c70039"/>
</g>
<defs>
<clipPath id="clip0_219_12">
<rect width="18" height="18" fill="#c70039"/>
</clipPath>
</defs>
</svg>
