<svg width="32" height="32" viewBox="0 0 32 32" fill="none" xmlns="http://www.w3.org/2000/svg">
<path d="M16 31.5C24.5604 31.5 31.5 24.5604 31.5 16C31.5 7.43959 24.5604 0.5 16 0.5C7.43959 0.5 0.5 7.43959 0.5 16C0.5 24.5604 7.43959 31.5 16 31.5Z" fill="#FF5555" stroke="#373748" stroke-linecap="round" stroke-linejoin="round"/>
<path d="M16 26.875C22.0061 26.875 26.875 22.0061 26.875 16C26.875 9.9939 22.0061 5.125 16 5.125C9.9939 5.125 5.125 9.9939 5.125 16C5.125 22.0061 9.9939 26.875 16 26.875Z" fill="white" stroke="#373748" stroke-linecap="round" stroke-linejoin="round"/>
<path d="M13.1473 12.9519C13.1473 16.4962 16.9563 16.6191 16.9563 19.171C16.9563 20.0571 16.5664 20.3761 15.9473 20.3761C15.3259 20.3761 14.9361 20.0571 14.9361 19.171V18.1975H13.093V19.0482C13.093 20.7305 13.8019 21.8127 15.2007 22.0963V22.9989H16.7956V22.0963C18.1779 21.8127 18.9057 20.7305 18.9057 19.0482C18.9057 15.5039 15.0943 15.3786 15.0943 12.8267C15.0943 11.9407 15.4487 11.6051 16.0702 11.6051C16.6916 11.6051 17.0437 11.9407 17.0437 12.8267V13.3418H18.8868V12.9519C18.8868 11.2672 18.1779 10.2039 16.7956 9.92038V8.9989H15.2007V9.92038C13.8373 10.2228 13.1473 11.2861 13.1473 12.9519Z" fill="#373748"/>
<path fill-rule="evenodd" clip-rule="evenodd" d="M13.4999 31.1V27H18.4999V31.1H13.4999ZM13.4999 5V0.899902H18.4999V5H13.4999ZM0.899902 13.5H4.9999V18.5H0.899902V13.5ZM26.9999 13.5H31.0999V18.5H26.9999V13.5ZM3.55489 24.9099L6.4539 22.0099L9.9889 25.5459L7.0899 28.4459L3.55489 24.9099ZM22.0099 6.45398L24.9099 3.55493L28.4449 7.09094L25.5449 9.98999L22.0099 6.45398ZM28.4449 24.9099L25.5449 22.0099L22.0099 25.5459L24.9099 28.4459L28.4449 24.9099ZM9.9889 6.45398L7.0899 3.55493L3.55489 7.09094L6.4539 9.98999L9.9889 6.45398Z" fill="#373748" stroke="#373748"/>
</svg>
