<svg width="23" height="23" viewBox="0 0 23 23" fill="none" xmlns="http://www.w3.org/2000/svg">
<g clip-path="url(#clip0_597_2)">
<path d="M11.5 0C5.14912 0 0 5.14912 0 11.5C0 17.8509 5.14912 23 11.5 23C17.8509 23 23 17.8509 23 11.5C23 5.14912 17.8509 0 11.5 0ZM11.5 21.5625C5.95125 21.5625 1.4375 17.0487 1.4375 11.5C1.4375 5.95125 5.95125 1.4375 11.5 1.4375C17.0487 1.4375 21.5625 5.95125 21.5625 11.5C21.5625 17.0487 17.0487 21.5625 11.5 21.5625ZM14.375 7.1875H8.625C8.24375 7.1875 7.87812 7.33895 7.60853 7.60853C7.33895 7.87812 7.1875 8.24375 7.1875 8.625V14.375C7.1875 14.7562 7.33895 15.1219 7.60853 15.3915C7.87812 15.661 8.24375 15.8125 8.625 15.8125H14.375C14.7562 15.8125 15.1219 15.661 15.3915 15.3915C15.661 15.1219 15.8125 14.7562 15.8125 14.375V8.625C15.8125 8.24375 15.661 7.87812 15.3915 7.60853C15.1219 7.33895 14.7562 7.1875 14.375 7.1875Z" fill="white"/>
</g>
<defs>
<clipPath id="clip0_597_2">
<rect width="23" height="23" fill="white"/>
</clipPath>
</defs>
</svg>
