<svg width="288" height="288" viewBox="0 0 288 288" fill="none" xmlns="http://www.w3.org/2000/svg">
<g clip-path="url(#clip0_223_4)">
<path fill-rule="evenodd" clip-rule="evenodd" d="M69.984 137.532C74.8211 115.825 84.682 95.5556 98.7746 78.3514C112.867 61.1473 130.799 47.4884 151.128 38.472L150.324 44.868L150.3 45.024C148.842 54.4646 150.426 64.1243 154.822 72.6049C159.219 81.0855 166.201 87.9469 174.756 92.196L174.9 92.28L230.592 121.98L230.628 122.004C230.985 122.195 231.3 122.457 231.553 122.773C231.807 123.089 231.993 123.453 232.102 123.843C232.211 124.234 232.239 124.642 232.186 125.043C232.133 125.445 231.999 125.832 231.792 126.18L231.768 126.228L231.708 126.336C229.128 130.616 225.411 134.096 220.97 136.388C216.529 138.681 211.539 139.696 206.556 139.32H206.436L193.404 138.312L192.984 138.276C186.648 137.796 181.284 137.376 177.096 137.436C173.052 137.472 168.12 137.916 164.016 140.736C161.287 142.618 159.042 145.119 157.466 148.035C155.889 150.951 155.025 154.198 154.944 157.512C154.824 162.504 157.152 166.872 159.324 170.28C161.58 173.808 164.844 178.068 168.732 183.108L168.984 183.444L191.724 213H89.28L78 192.66C68.6744 175.883 65.8224 156.27 69.984 137.532ZM83.832 231H207C211.774 231 216.352 232.896 219.728 236.272C223.104 239.648 225 244.226 225 249H63C63 244.226 64.8964 239.648 68.2721 236.272C71.6477 232.896 76.2261 231 81 231H83.832ZM69.72 214.8L62.28 201.396C50.824 180.771 47.3232 156.663 52.44 133.632C57.9585 108.839 69.2934 85.7127 85.5094 66.1625C101.725 46.6123 122.358 31.1982 145.704 21.192C148.449 20.0158 151.456 19.5849 154.421 19.9429C157.386 20.3009 160.204 21.435 162.59 23.2308C164.976 25.0265 166.846 27.4203 168.011 30.1701C169.176 32.92 169.594 35.9286 169.224 38.892L168.192 47.1C168.012 48.54 167.952 49.056 167.916 49.5C167.46 54.6172 168.473 59.7584 170.837 64.3199C173.2 68.8814 176.816 72.6739 181.26 75.252L183.384 76.404L239.064 106.104L239.16 106.14C241.661 107.482 243.864 109.318 245.636 111.535C247.407 113.753 248.711 116.307 249.468 119.042C250.225 121.778 250.42 124.638 250.04 127.451C249.661 130.264 248.715 132.971 247.26 135.408L247.212 135.492L247.128 135.612C242.832 142.746 236.64 148.549 229.242 152.373C221.843 156.197 213.529 157.893 205.224 157.272H205.068L192.036 156.264C185.16 155.724 180.612 155.388 177.324 155.424C176.225 155.401 175.126 155.497 174.048 155.712C173.439 156.212 173.051 156.932 172.968 157.716C173.052 157.956 173.376 158.82 174.528 160.596C176.292 163.38 179.064 167.004 183.264 172.476L215.16 213.924C223.081 215.767 230.145 220.236 235.202 226.605C240.26 232.974 243.012 240.867 243.012 249C243.012 253.774 241.116 258.352 237.74 261.728C234.364 265.104 229.786 267 225.012 267H63C58.2261 267 53.6477 265.104 50.2721 261.728C46.8964 258.352 45 253.774 45 249C45 233.064 55.368 219.54 69.72 214.8Z" fill="white"/>
</g>
<defs>
<clipPath id="clip0_223_4">
<rect width="288" height="288" fill="white"/>
</clipPath>
</defs>
</svg>
