<svg width="14" height="20" viewBox="0 0 14 20" fill="none" xmlns="http://www.w3.org/2000/svg">
<path d="M1.16671 13.6109H6.16671V18.3334C6.16671 18.5544 6.2545 18.7664 6.41079 18.9226C6.56707 19.0789 6.77903 19.1667 7.00004 19.1667H12.8334C13.0544 19.1667 13.2663 19.0789 13.4226 18.9226C13.5789 18.7664 13.6667 18.5544 13.6667 18.3334V7.22254C13.6667 7.00153 13.5789 6.78957 13.4226 6.63329C13.2663 6.47701 13.0544 6.38921 12.8334 6.38921H7.83337V1.66671C7.83337 1.44569 7.74558 1.23373 7.5893 1.07745C7.43302 0.921171 7.22105 0.833374 7.00004 0.833374H1.16671C0.945694 0.833374 0.733732 0.921171 0.577452 1.07745C0.421172 1.23373 0.333374 1.44569 0.333374 1.66671V12.7775C0.333374 12.9986 0.421172 13.2105 0.577452 13.3668C0.733732 13.5231 0.945694 13.6109 1.16671 13.6109ZM7.83337 8.05587H12V11.9442H7.83337V8.05587ZM7.83337 13.6109H12V17.5H7.83337V13.6109ZM2.00004 2.50004H6.16671V6.38921H2.00004V2.50004ZM2.00004 8.05587H6.16671V11.9442H2.00004V8.05587Z" fill="white"/>
</svg>
