<svg width="22" height="22" viewBox="0 0 22 22" fill="none" xmlns="http://www.w3.org/2000/svg">
<path d="M9.42603 12.3062C8.84744 12.4955 8.2254 12.507 7.64024 12.3391L3.2253 11.0899C2.4446 10.8686 1.78377 10.3462 1.38819 9.63772C0.992616 8.9292 0.894685 8.09256 1.11594 7.31183L2.36703 2.89575C2.58875 2.11539 3.11129 1.45502 3.81977 1.05983C4.52825 0.664636 5.36467 0.566967 6.14514 0.788295L10.5612 2.03938C10.9478 2.14892 11.3091 2.33354 11.6243 2.5827C11.9396 2.83185 12.2027 3.14066 12.3986 3.49149C12.5945 3.84232 12.7194 4.2283 12.7661 4.6274C12.8128 5.02649 12.7805 5.43089 12.671 5.81749L11.4195 10.2317" stroke="white" stroke-width="1.14743" stroke-linejoin="round"/>
<path d="M5.81506 5.91579C6.52354 5.91579 7.09788 5.34144 7.09788 4.63296C7.09788 3.92447 6.52354 3.35013 5.81506 3.35013C5.10657 3.35013 4.53223 3.92447 4.53223 4.63296C4.53223 5.34144 5.10657 5.91579 5.81506 5.91579Z" fill="white"/>
<path d="M7.97131 9.77727C8.67979 9.77727 9.25413 9.20292 9.25413 8.49444C9.25413 7.78595 8.67979 7.21161 7.97131 7.21161C7.26282 7.21161 6.68848 7.78595 6.68848 8.49444C6.68848 9.20292 7.26282 9.77727 7.97131 9.77727Z" fill="white"/>
<path d="M16.439 9.21464L11.8965 9.87149C10.224 10.1133 9.06422 11.6652 9.30606 13.3377L9.96291 17.8802C10.2048 19.5527 11.7566 20.7125 13.4291 20.4706L17.9716 19.8138C19.6441 19.5719 20.8039 18.02 20.562 16.3475L19.9052 11.8051C19.6633 10.1326 18.1115 8.9728 16.439 9.21464Z" stroke="white" stroke-width="1.14743" stroke-linejoin="round"/>
<path d="M12.693 16.4496C13.4015 16.4496 13.9758 15.8753 13.9758 15.1668C13.9758 14.4583 13.4015 13.8839 12.693 13.8839C11.9845 13.8839 11.4102 14.4583 11.4102 15.1668C11.4102 15.8753 11.9845 16.4496 12.693 16.4496Z" fill="white"/>
<path d="M12.2672 13.5057C12.9757 13.5057 13.55 12.9313 13.55 12.2228C13.55 11.5143 12.9757 10.94 12.2672 10.94C11.5587 10.94 10.9844 11.5143 10.9844 12.2228C10.9844 12.9313 11.5587 13.5057 12.2672 13.5057Z" fill="white"/>
<path d="M13.119 19.3935C13.8275 19.3935 14.4018 18.8192 14.4018 18.1107C14.4018 17.4022 13.8275 16.8279 13.119 16.8279C12.4105 16.8279 11.8362 17.4022 11.8362 18.1107C11.8362 18.8192 12.4105 19.3935 13.119 19.3935Z" fill="white"/>
<path d="M17.1747 15.8017C17.8832 15.8017 18.4575 15.2273 18.4575 14.5188C18.4575 13.8103 17.8832 13.236 17.1747 13.236C16.4662 13.236 15.8918 13.8103 15.8918 14.5188C15.8918 15.2273 16.4662 15.8017 17.1747 15.8017Z" fill="white"/>
<path d="M16.7489 12.8573C17.4574 12.8573 18.0317 12.283 18.0317 11.5745C18.0317 10.866 17.4574 10.2917 16.7489 10.2917C16.0404 10.2917 15.4661 10.866 15.4661 11.5745C15.4661 12.283 16.0404 12.8573 16.7489 12.8573Z" fill="white"/>
<path d="M17.6002 18.7456C18.3087 18.7456 18.883 18.1712 18.883 17.4628C18.883 16.7543 18.3087 16.1799 17.6002 16.1799C16.8917 16.1799 16.3174 16.7543 16.3174 17.4628C16.3174 18.1712 16.8917 18.7456 17.6002 18.7456Z" fill="white"/>
</svg>
