<svg width="14" height="18" viewBox="0 0 14 18" fill="none" xmlns="http://www.w3.org/2000/svg">
<g clip-path="url(#clip0_162_2)">
<path d="M13.6665 9.00004C13.6665 8.77903 13.5787 8.56707 13.4224 8.41079C13.2661 8.25451 13.0542 8.16671 12.8332 8.16671L6.50817 8.16671L8.42484 6.2584C8.50295 6.1809 8.56494 6.0887 8.60725 5.9872C8.64956 5.8856 8.67134 5.7767 8.67134 5.6667C8.67134 5.5567 8.64956 5.4478 8.60725 5.3462C8.56494 5.2447 8.50295 5.1525 8.42484 5.075C8.34737 4.9969 8.2552 4.9349 8.15365 4.8926C8.0521 4.8503 7.94318 4.8285 7.83317 4.8285C7.72316 4.8285 7.61424 4.8503 7.51269 4.8926C7.41114 4.9349 7.31898 4.9969 7.24151 5.075L3.90818 8.40837C3.83228 8.48763 3.77288 8.58108 3.73318 8.68337C3.64978 8.88626 3.64978 9.11382 3.73318 9.31671C3.77288 9.419 3.83228 9.51245 3.90818 9.59171L7.24151 12.925C7.3192 13.0027 7.41145 13.0644 7.51296 13.1064C7.61448 13.1485 7.72329 13.1701 7.83317 13.1701C7.94306 13.1701 8.05186 13.1485 8.15338 13.1064C8.2549 13.0644 8.34714 13.0027 8.42484 12.925C8.50254 12.8473 8.56417 12.7551 8.60622 12.6536C8.64827 12.5521 8.66992 12.4433 8.66992 12.3334C8.66992 12.2235 8.64827 12.1147 8.60622 12.0132C8.56417 11.9116 8.50254 11.8194 8.42484 11.7417L6.50817 9.83337L12.8332 9.83337C13.0542 9.83337 13.2661 9.74558 13.4224 9.5893C13.5787 9.43302 13.6665 9.22105 13.6665 9.00004ZM2.83318 17.3334L11.1665 17.3334C11.8295 17.3334 12.4654 17.07 12.9343 16.6011C13.4031 16.1323 13.6665 15.4964 13.6665 14.8334L13.6665 12.3334C13.6665 12.1124 13.5787 11.9004 13.4224 11.7441C13.2661 11.5878 13.0542 11.5 12.8332 11.5C12.6122 11.5 12.4002 11.5878 12.2439 11.7441C12.0876 11.9004 11.9998 12.1124 11.9998 12.3334L11.9998 14.8334C11.9998 15.0544 11.912 15.2663 11.7558 15.4226C11.5995 15.5789 11.3875 15.6667 11.1665 15.6667L2.83318 15.6667C2.61218 15.6667 2.40018 15.5789 2.24388 15.4226C2.08768 15.2663 1.99988 15.0544 1.99988 14.8334L1.99988 3.1667C1.99988 2.9457 2.08768 2.7337 2.24388 2.5775C2.40018 2.4212 2.61218 2.3334 2.83318 2.3334L11.1665 2.3334C11.3875 2.3334 11.5995 2.4212 11.7558 2.5775C11.912 2.7337 11.9998 2.9457 11.9998 3.1667L11.9998 5.6667C11.9998 5.8877 12.0876 6.0997 12.2439 6.256C12.4002 6.4122 12.6122 6.5 12.8332 6.5C13.0542 6.5 13.2661 6.4122 13.4224 6.256C13.5787 6.0997 13.6665 5.8877 13.6665 5.6667L13.6665 3.1667C13.6665 2.5037 13.4031 1.8678 12.9343 1.3989C12.4654 0.930099 11.8295 0.6667 11.1665 0.6667L2.83318 0.666699C2.17018 0.666699 1.53428 0.930098 1.06538 1.3989C0.59658 1.8678 0.333179 2.5037 0.333179 3.1667L0.333178 14.8334C0.333178 15.4964 0.596578 16.1323 1.06538 16.6011C1.53428 17.07 2.17018 17.3334 2.83318 17.3334Z" fill="white"/>
</g>
<defs>
<clipPath id="clip0_162_2">
<rect width="14" height="18" fill="white" transform="translate(14 18) rotate(-180)"/>
</clipPath>
</defs>
</svg>
