<svg width="18" height="18" viewBox="0 0 18 18" fill="none" xmlns="http://www.w3.org/2000/svg">
<g clip-path="url(#clip0_169_6)">
<path d="M5.92312 15.775C4.33969 15.775 2.85188 15.159 1.73531 14.0396C0.615938 12.9231 0 11.4353 0 9.85184C0 8.2684 0.615938 6.78059 1.73531 5.66402C2.85469 4.54465 4.3425 3.92871 5.92312 3.92871C7.50656 3.92871 8.99438 4.54465 10.1109 5.66402C11.2303 6.7834 11.8462 8.27121 11.8462 9.85184C11.8462 11.4325 11.2303 12.9231 10.1109 14.0396C8.99438 15.159 7.50656 15.775 5.92312 15.775ZM5.92312 4.98621C4.62375 4.98621 3.40312 5.49246 2.48344 6.41215C1.56375 7.33184 1.0575 8.55246 1.0575 9.85184C1.0575 11.1512 1.56375 12.3718 2.48344 13.2915C3.40312 14.2112 4.62375 14.7175 5.92312 14.7175C7.2225 14.7175 8.44313 14.2112 9.36281 13.2915C10.2825 12.3718 10.7888 11.1512 10.7888 9.85184C10.7888 8.55246 10.2825 7.33184 9.36281 6.41215C8.91246 5.95854 8.37649 5.59891 7.78601 5.35412C7.19554 5.10934 6.56232 4.98428 5.92312 4.98621Z" fill="white"/>
<path d="M10.9341 8.37923C10.7991 8.37923 10.6641 8.32861 10.56 8.22454C10.3519 8.01923 10.3519 7.68173 10.56 7.47642L12.2728 5.76361L10.0144 3.50517L8.29875 5.22079C8.09062 5.42892 7.75594 5.42892 7.55063 5.22079C7.3425 5.01548 7.3425 4.67798 7.55063 4.47267L9.64031 2.38298C9.73967 2.28406 9.87417 2.22852 10.0144 2.22852C10.1546 2.22852 10.2891 2.28406 10.3884 2.38298L13.395 5.38954C13.6031 5.59486 13.6031 5.93236 13.395 6.13767L11.3081 8.22454C11.2041 8.32579 11.0691 8.37923 10.9341 8.37923Z" fill="white"/>
<path d="M11.5204 4.78695C11.3854 4.78695 11.2504 4.73633 11.1463 4.63227C10.9382 4.42414 10.9382 4.08945 11.1463 3.88414L12.2376 2.79289C12.4009 2.62874 12.595 2.49851 12.8089 2.4097C13.0227 2.32088 13.252 2.27524 13.4835 2.27539C13.9532 2.27539 14.3976 2.4582 14.7295 2.79289L15.1963 3.25977C15.4045 3.46789 15.4045 3.80258 15.1963 4.00789C14.9882 4.21602 14.6535 4.2132 14.4482 4.00789L13.9813 3.54102C13.7141 3.27383 13.2529 3.27383 12.9857 3.54102L11.8945 4.63227C11.7904 4.73633 11.6554 4.78695 11.5204 4.78695ZM14.4229 6.81195H14.3891C14.249 6.8027 14.1183 6.73832 14.0255 6.6329C13.9327 6.52748 13.8855 6.38961 13.8941 6.24945L13.9645 5.16383C13.9841 4.87133 14.2401 4.65477 14.527 4.66883C14.8195 4.68852 15.0388 4.93883 15.022 5.23133L14.9516 6.31695C14.932 6.5982 14.6985 6.81195 14.4229 6.81195ZM16.5266 5.86695C16.3916 5.86695 16.2566 5.81633 16.1526 5.71227L15.6435 5.2032C15.4354 4.99789 15.4354 4.66039 15.6435 4.45508C15.8516 4.24695 16.1863 4.24695 16.3916 4.45508L16.9007 4.96414C17.1088 5.16945 17.1088 5.50695 16.9007 5.71227C16.7966 5.81352 16.6616 5.86695 16.5266 5.86695ZM16.3832 3.83352C16.2436 3.83703 16.1082 3.78517 16.0066 3.68925C15.9051 3.59334 15.8456 3.46115 15.8411 3.32153C15.8367 3.18191 15.8876 3.04619 15.9829 2.944C16.0781 2.8418 16.2099 2.78141 16.3495 2.77602L17.4379 2.7057C17.7276 2.68602 17.9807 2.9082 18.0004 3.2007C18.0201 3.4932 17.7979 3.74352 17.5054 3.7632L16.4198 3.83352H16.3832Z" fill="white"/>
</g>
<defs>
<clipPath id="clip0_169_6">
<rect width="18" height="18" fill="white"/>
</clipPath>
</defs>
</svg>
