<svg width="18" height="18" viewBox="0 0 18 18" fill="none" xmlns="http://www.w3.org/2000/svg">
<path fill-rule="evenodd" clip-rule="evenodd" d="M8.16663 3.78247V5.66663H7.33329C4.69079 5.66663 2.45913 7.42329 1.74163 9.83329H0.666626V13.1666H1.74163C2.45913 15.5766 4.69079 17.3333 7.33329 17.3333C8.42329 17.3333 9.57663 17.3333 10.6666 17.3333C13.3091 17.3333 15.5408 15.5766 16.2583 13.1666H17.3333V9.83329H16.2583C15.5408 7.42329 13.3091 5.66663 10.6666 5.66663H9.83329V3.78746C10.3358 3.49912 10.6741 2.95746 10.6741 2.33746C10.6741 1.41496 9.92579 0.666626 9.00412 0.666626C8.08162 0.666626 7.33329 1.41496 7.33329 2.33746C7.33329 2.95413 7.66829 3.4933 8.16663 3.78247ZM3.16663 11.5C3.16663 9.19913 5.03246 7.33329 7.33329 7.33329C8.42329 7.33329 9.57663 7.33329 10.6666 7.33329C12.9675 7.33329 14.8333 9.19913 14.8333 11.5C14.8333 11.5033 14.8333 11.5075 14.8333 11.5108C14.8333 13.8008 12.9675 15.6666 10.6666 15.6666C9.57663 15.6666 8.42329 15.6666 7.33329 15.6666C5.03246 15.6666 3.16663 13.8008 3.16663 11.5ZM10.6666 10.6666V12.3333H12.3333V10.6666H10.6666ZM5.66663 10.6666V12.3333H7.33329V10.6666H5.66663Z" fill="white"/>
</svg>
