<svg width="18" height="18" viewBox="0 0 18 18" fill="none" xmlns="http://www.w3.org/2000/svg">
<path d="M6.17503 17.3333C5.76838 17.3309 5.37354 17.1964 5.05003 16.95L3.32503 15.6666C2.92695 15.3563 2.66283 14.9052 2.58689 14.4062C2.51095 13.9072 2.62896 13.398 2.9167 12.9833C3.06894 12.7585 3.16569 12.5008 3.19901 12.2314C3.23232 11.9619 3.20126 11.6884 3.10836 11.4333L3.05836 11.3C2.99368 11.0691 2.87545 10.8567 2.71329 10.68C2.55112 10.5034 2.34958 10.3674 2.12503 10.2833H1.9917C1.50492 10.1196 1.10237 9.77051 0.871453 9.31179C0.640536 8.85308 0.599897 8.32179 0.758362 7.83329L1.4417 5.66663C1.5046 5.41559 1.62041 5.1809 1.78137 4.97826C1.94234 4.77561 2.14474 4.6097 2.37503 4.49163C2.58949 4.38113 2.82414 4.31529 3.06478 4.2981C3.30542 4.28091 3.54704 4.31273 3.77503 4.39163C4.02327 4.47517 4.28815 4.49682 4.54666 4.45471C4.80517 4.41259 5.04948 4.30798 5.25836 4.14996L5.3667 4.06663C5.55577 3.91575 5.70859 3.72438 5.81387 3.5066C5.91916 3.28882 5.97423 3.05019 5.97503 2.80829V2.60829C5.97279 2.0984 6.17207 1.60827 6.52949 1.24461C6.8869 0.880953 7.37351 0.673215 7.88336 0.666626H10.0084C10.2564 0.667294 10.5019 0.716963 10.7307 0.812779C10.9595 0.908594 11.1672 1.04867 11.3417 1.22496C11.7086 1.59812 11.9124 2.10165 11.9084 2.62496V2.85829C11.9041 3.08809 11.954 3.31566 12.0538 3.52265C12.1537 3.72965 12.3009 3.91027 12.4834 4.04996L12.575 4.11663C12.7621 4.25688 12.9802 4.34983 13.2109 4.38755C13.4417 4.42528 13.6781 4.40666 13.9 4.33329L14.1834 4.24163C14.4234 4.16205 14.677 4.13164 14.9291 4.15221C15.1812 4.17277 15.4265 4.24389 15.6505 4.36133C15.8745 4.47876 16.0725 4.6401 16.2328 4.83573C16.393 5.03135 16.5123 5.25726 16.5834 5.49996L17.2417 7.59996C17.394 8.08529 17.3524 8.61076 17.1255 9.06604C16.8987 9.52132 16.5042 9.87099 16.025 10.0416L15.8584 10.1C15.6132 10.1802 15.3916 10.3195 15.2128 10.5055C15.0341 10.6915 14.9038 10.9185 14.8334 11.1666C14.767 11.3973 14.7513 11.6396 14.7873 11.8769C14.8232 12.1142 14.91 12.341 15.0417 12.5416L15.2584 12.8583C15.5457 13.2753 15.6626 13.7865 15.5851 14.287C15.5077 14.7874 15.2417 15.2393 14.8417 15.55L13.1667 16.8416C12.9643 16.9964 12.7324 17.1081 12.4853 17.1698C12.2381 17.2316 11.9809 17.2421 11.7296 17.2007C11.4782 17.1594 11.238 17.067 11.0236 16.9293C10.8093 16.7915 10.6254 16.6114 10.4834 16.4L10.3834 16.2583C10.2469 16.0532 10.0607 15.886 9.84206 15.7723C9.62348 15.6587 9.37966 15.6022 9.13336 15.6083C8.89834 15.6144 8.66804 15.6756 8.46105 15.7871C8.25405 15.8985 8.07615 16.0571 7.9417 16.25L7.75003 16.525C7.6079 16.7379 7.42366 16.9195 7.20868 17.0585C6.9937 17.1975 6.75253 17.291 6.50003 17.3333C6.39195 17.3439 6.2831 17.3439 6.17503 17.3333ZM2.6667 8.68329C3.13727 8.85109 3.56188 9.12702 3.90636 9.48886C4.25084 9.85071 4.50556 10.2884 4.65003 10.7666V10.8666C4.82997 11.3638 4.88906 11.8967 4.82241 12.4212C4.75575 12.9458 4.56527 13.4469 4.2667 13.8833C4.21399 13.9415 4.18481 14.0173 4.18481 14.0958C4.18481 14.1743 4.21399 14.2501 4.2667 14.3083L6.05836 15.6666C6.08174 15.685 6.10877 15.6981 6.13765 15.7052C6.16652 15.7122 6.19657 15.713 6.22578 15.7075C6.25498 15.702 6.28267 15.6903 6.30697 15.6731C6.33128 15.656 6.35164 15.6339 6.3667 15.6083L6.55836 15.3333C6.84744 14.9156 7.23348 14.5742 7.68341 14.3384C8.13334 14.1027 8.63373 13.9795 9.1417 13.9795C9.64966 13.9795 10.1501 14.1027 10.6 14.3384C11.0499 14.5742 11.436 14.9156 11.725 15.3333L11.825 15.4833C11.8609 15.5341 11.9143 15.5698 11.975 15.5833C12.0029 15.5874 12.0312 15.5858 12.0585 15.5787C12.0857 15.5715 12.1112 15.5589 12.1334 15.5416L13.85 14.2416C13.9101 14.1939 13.9497 14.125 13.9605 14.0491C13.9714 13.9731 13.9527 13.8959 13.9084 13.8333L13.6917 13.5166C13.4094 13.105 13.2231 12.6351 13.1467 12.1419C13.0702 11.6486 13.1056 11.1444 13.25 10.6666C13.3965 10.1644 13.6614 9.70476 14.0225 9.32627C14.3836 8.94778 14.8303 8.66154 15.325 8.49163L15.4917 8.43329C15.5612 8.40547 15.6168 8.3513 15.6465 8.2826C15.6761 8.21391 15.6774 8.13627 15.65 8.06663L15 5.99163C14.9844 5.95532 14.9616 5.92256 14.933 5.89535C14.9043 5.86813 14.8704 5.84702 14.8334 5.83329C14.8088 5.82085 14.7817 5.81436 14.7542 5.81436C14.7267 5.81436 14.6996 5.82085 14.675 5.83329L14.3917 5.92496C13.9124 6.08315 13.4019 6.12256 12.904 6.03982C12.4061 5.95708 11.9357 5.75466 11.5334 5.44996L11.5 5.37496C11.1139 5.08256 10.8009 4.70464 10.5854 4.27087C10.37 3.83709 10.258 3.35929 10.2584 2.87496V2.61663C10.2599 2.53631 10.23 2.45857 10.175 2.39996C10.1271 2.35663 10.0646 2.33285 10 2.33329H7.88336C7.84941 2.33541 7.81622 2.34422 7.78568 2.3592C7.75514 2.37418 7.72786 2.39504 7.70541 2.42059C7.68295 2.44615 7.66577 2.47588 7.65483 2.50809C7.6439 2.5403 7.63944 2.57435 7.6417 2.60829V2.81663C7.64175 3.31416 7.52757 3.80506 7.30796 4.2515C7.08835 4.69794 6.76918 5.088 6.37503 5.39163L6.2667 5.47496C5.84147 5.79871 5.34313 6.0129 4.81561 6.09864C4.28808 6.18438 3.74757 6.13905 3.2417 5.96663C3.20384 5.95392 3.16288 5.95392 3.12503 5.96663C3.078 5.9952 3.04258 6.03947 3.02503 6.09163L2.33336 8.26663C2.30925 8.3407 2.3149 8.42125 2.34912 8.49124C2.38333 8.56122 2.44343 8.61516 2.5167 8.64163L2.6667 8.68329Z" fill="white"/>
<path d="M9.00004 11.9166C8.42318 11.9166 7.85927 11.7455 7.37963 11.425C6.89999 11.1046 6.52615 10.649 6.30539 10.1161C6.08464 9.58313 6.02688 8.99668 6.13942 8.43091C6.25196 7.86513 6.52974 7.34543 6.93765 6.93753C7.34555 6.52962 7.86525 6.25184 8.43103 6.1393C8.99681 6.02676 9.58325 6.08452 10.1162 6.30527C10.6492 6.52603 11.1047 6.89986 11.4252 7.37951C11.7456 7.85915 11.9167 8.42306 11.9167 8.99992C11.9167 9.77347 11.6094 10.5153 11.0624 11.0623C10.5155 11.6093 9.77359 11.9166 9.00004 11.9166ZM9.00004 7.74992C8.75282 7.74992 8.51114 7.82323 8.30558 7.96058C8.10002 8.09793 7.9398 8.29316 7.84519 8.52157C7.75058 8.74997 7.72583 9.00131 7.77406 9.24378C7.82229 9.48626 7.94134 9.70899 8.11616 9.8838C8.29097 10.0586 8.5137 10.1777 8.75618 10.2259C8.99866 10.2741 9.24999 10.2494 9.4784 10.1548C9.7068 10.0602 9.90203 9.89994 10.0394 9.69438C10.1767 9.48882 10.25 9.24715 10.25 8.99992C10.25 8.6684 10.1183 8.35046 9.88393 8.11604C9.64951 7.88162 9.33156 7.74992 9.00004 7.74992Z" fill="white"/>
</svg>
