<svg width="14" height="18" viewBox="0 0 14 18" fill="none" xmlns="http://www.w3.org/2000/svg">
<path d="M0.333374 8.99996C0.333374 9.22097 0.421172 9.43293 0.577452 9.58921C0.733732 9.74549 0.945694 9.83329 1.16671 9.83329H7.49171L5.57504 11.7416C5.49693 11.8191 5.43494 11.9113 5.39263 12.0128C5.35032 12.1144 5.32854 12.2233 5.32854 12.3333C5.32854 12.4433 5.35032 12.5522 5.39263 12.6538C5.43494 12.7553 5.49693 12.8475 5.57504 12.925C5.65251 13.0031 5.74468 13.0651 5.84623 13.1074C5.94778 13.1497 6.0567 13.1715 6.16671 13.1715C6.27672 13.1715 6.38564 13.1497 6.48719 13.1074C6.58874 13.0651 6.6809 13.0031 6.75837 12.925L10.0917 9.59163C10.1676 9.51237 10.227 9.41892 10.2667 9.31663C10.3501 9.11374 10.3501 8.88618 10.2667 8.68329C10.227 8.581 10.1676 8.48755 10.0917 8.40829L6.75837 5.07496C6.68068 4.99726 6.58843 4.93563 6.48692 4.89358C6.3854 4.85153 6.27659 4.82988 6.16671 4.82988C6.05682 4.82988 5.94802 4.85153 5.8465 4.89358C5.74498 4.93563 5.65274 4.99726 5.57504 5.07496C5.49734 5.15266 5.43571 5.2449 5.39366 5.34642C5.35161 5.44794 5.32996 5.55674 5.32996 5.66663C5.32996 5.77651 5.35161 5.88532 5.39366 5.98683C5.43571 6.08835 5.49734 6.18059 5.57504 6.25829L7.49171 8.16663H1.16671C0.945694 8.16663 0.733732 8.25442 0.577452 8.4107C0.421172 8.56698 0.333374 8.77895 0.333374 8.99996ZM11.1667 0.666626H2.83337C2.17033 0.666626 1.53445 0.930018 1.06561 1.39886C0.596766 1.8677 0.333374 2.50358 0.333374 3.16663V5.66663C0.333374 5.88764 0.421172 6.0996 0.577452 6.25588C0.733732 6.41216 0.945694 6.49996 1.16671 6.49996C1.38772 6.49996 1.59968 6.41216 1.75596 6.25588C1.91224 6.0996 2.00004 5.88764 2.00004 5.66663V3.16663C2.00004 2.94561 2.08784 2.73365 2.24412 2.57737C2.4004 2.42109 2.61236 2.33329 2.83337 2.33329H11.1667C11.3877 2.33329 11.5997 2.42109 11.756 2.57737C11.9122 2.73365 12 2.94561 12 3.16663V14.8333C12 15.0543 11.9122 15.2663 11.756 15.4225C11.5997 15.5788 11.3877 15.6666 11.1667 15.6666H2.83337C2.61236 15.6666 2.4004 15.5788 2.24412 15.4225C2.08784 15.2663 2.00004 15.0543 2.00004 14.8333V12.3333C2.00004 12.1123 1.91224 11.9003 1.75596 11.744C1.59968 11.5878 1.38772 11.5 1.16671 11.5C0.945694 11.5 0.733732 11.5878 0.577452 11.744C0.421172 11.9003 0.333374 12.1123 0.333374 12.3333V14.8333C0.333374 15.4963 0.596766 16.1322 1.06561 16.6011C1.53445 17.0699 2.17033 17.3333 2.83337 17.3333H11.1667C11.8297 17.3333 12.4656 17.0699 12.9345 16.6011C13.4033 16.1322 13.6667 15.4963 13.6667 14.8333V3.16663C13.6667 2.50358 13.4033 1.8677 12.9345 1.39886C12.4656 0.930018 11.8297 0.666626 11.1667 0.666626Z" fill="white"/>
</svg>
